<svg width="297" height="714" viewBox="0 0 297 714" fill="none" xmlns="http://www.w3.org/2000/svg">
<g clip-path="url(#clip0_2155_3076)">
<path d="M294.5 -87L146.75 60.75L-1.00001 -87" stroke="#3A3838"/>
<path d="M294.5 -33.8125L146.75 113.937L-1.00001 -33.8125" stroke="#3A3838"/>
<path d="M294.5 19.3828L146.75 167.133L-1.00001 19.3828" stroke="#3A3838"/>
<path d="M294.5 72.5703L146.75 220.32L-1.00001 72.5703" stroke="#3A3838"/>
<path d="M294.5 125.758L146.75 273.508L-1.00001 125.758" stroke="#3A3838"/>
<path d="M294.5 178.953L146.75 326.703L-1.00001 178.953" stroke="#3A3838"/>
<path d="M294.5 232.141L146.75 379.891L-1.00001 232.141" stroke="#3A3838"/>
<path d="M294.5 285.328L146.75 433.078L-1.00001 285.328" stroke="#3A3838"/>
<path d="M294.5 338.523L146.75 486.273L-1.00001 338.523" stroke="#3A3838"/>
<path d="M294.5 391.711L146.75 539.461L-1.00001 391.711" stroke="#3A3838"/>
<path d="M294.5 444.898L146.75 592.648L-1.00001 444.898" stroke="#3A3838"/>
<path d="M294.5 498.094L146.75 645.844L-1.00001 498.094" stroke="#3A3838"/>
<path d="M294.5 551.281L146.75 699.031L-1.00001 551.281" stroke="#3A3838"/>
<path d="M294.5 604.469L146.75 752.219L-1.00001 604.469" stroke="#3A3838"/>
<path d="M294.5 657.656L146.75 805.406L-1.00001 657.656" stroke="#3A3838"/>
<path d="M294.5 710.852L146.75 858.602L-1.00001 710.852" stroke="#3A3838"/>
</g>
<defs>
<clipPath id="clip0_2155_3076">
<rect width="714" height="297" fill="white" transform="translate(297) rotate(90)"/>
</clipPath>
</defs>
</svg>
