<svg width="40" height="40" viewBox="0 0 40 40" fill="none" xmlns="http://www.w3.org/2000/svg">
<g clip-path="url(#clip0_2220_4114)">
<path d="M28.5691 21.5376C28.3735 22.1141 28.0606 22.6453 27.6628 23.0923L28.3018 24.5499L25.9871 25.8779L25.0417 24.6017C24.7483 24.66 24.4483 24.6859 24.1354 24.6859C23.8224 24.6859 23.5225 24.6535 23.2291 24.6017L22.2836 25.8779L19.9689 24.5499L20.6079 23.0923C20.2102 22.6453 19.9037 22.1141 19.7016 21.5376L18.1172 21.3626V18.7066L19.7016 18.5317C19.8972 17.9552 20.2102 17.424 20.6079 16.977L19.9689 15.5194L22.2836 14.1914L23.2291 15.4676C23.5225 15.4093 23.8224 15.3834 24.1354 15.3834C24.4483 15.3834 24.7483 15.4158 25.0417 15.4676L25.9871 14.1914L28.3018 15.5194L27.6628 16.977C28.0606 17.424 28.367 17.9552 28.5691 18.5317L30.1536 18.7066V21.3626L28.5691 21.5376Z" stroke="white" stroke-width="1.25" stroke-linecap="round" stroke-linejoin="round"/>
<path d="M24.1457 21.6879C25.0676 21.6879 25.8149 20.9454 25.8149 20.0295C25.8149 19.1136 25.0676 18.3711 24.1457 18.3711C23.2239 18.3711 22.4766 19.1136 22.4766 20.0295C22.4766 20.9454 23.2239 21.6879 24.1457 21.6879Z" stroke="white" stroke-width="1.25" stroke-linecap="round" stroke-linejoin="round"/>
<path d="M26.2846 34.5886L31.4096 29.4709C31.7095 29.1794 32.1203 29.011 32.5441 29.011H35.9281C37.3951 29.011 38.5949 27.819 38.5949 26.3615V13.7745C38.5949 12.317 37.3951 11.125 35.9281 11.125H12.8855C11.4185 11.125 10.2188 12.317 10.2188 13.7745V26.3615C10.2188 27.819 11.4185 29.011 12.8855 29.011H24.6611C25.5544 29.011 26.2846 29.7301 26.2846 30.624V34.5886Z" stroke="white" stroke-width="1.25" stroke-linecap="round" stroke-linejoin="round"/>
<path d="M10.2151 23.4088L8.59156 21.7893C8.29163 21.4978 7.88085 21.3294 7.45704 21.3294H4.07303C2.60598 21.3294 1.40625 20.1374 1.40625 18.6798V8.05579C1.40625 6.59822 2.60598 5.40625 4.07303 5.40625H27.1156C28.5826 5.40625 29.7824 6.59822 29.7824 8.05579V10.9774" stroke="white" stroke-width="1.25" stroke-linecap="round" stroke-linejoin="round"/>
<path d="M4.25 8.48047H22.7414" stroke="white" stroke-width="1.25" stroke-linecap="round" stroke-linejoin="round"/>
<path d="M4.21094 11.2969H7.36022" stroke="white" stroke-width="1.25" stroke-linecap="round" stroke-linejoin="round"/>
<path d="M4.21094 13.4102H7.36022" stroke="white" stroke-width="1.25" stroke-linecap="round" stroke-linejoin="round"/>
</g>
<defs>
<clipPath id="clip0_2220_4114">
<rect width="38" height="30" fill="white" transform="translate(1 5)"/>
</clipPath>
</defs>
</svg>
