<svg width="40" height="40" viewBox="0 0 40 40" fill="none" xmlns="http://www.w3.org/2000/svg">
<mask id="mask0_2220_3990" style="mask-type:alpha" maskUnits="userSpaceOnUse" x="0" y="0" width="40" height="40">
<rect width="40" height="40" fill="white"/>
</mask>
<g mask="url(#mask0_2220_3990)">
<path d="M10.5546 32.4976C8.31319 32.4976 6.41042 31.7129 4.84625 30.1434C3.28208 28.574 2.5 26.6686 2.5 24.4272C2.5 22.3886 3.18375 20.5952 4.55125 19.0472C5.91875 17.4991 7.62389 16.6279 9.66667 16.4334C10.0942 13.8459 11.2849 11.714 13.2388 10.0376C15.1929 8.36149 17.4692 7.52344 20.0675 7.52344C22.9756 7.52344 25.4349 8.57524 27.4454 10.6789C29.4562 12.7825 30.4617 15.3107 30.4617 18.2634V18.8405H30.9742C32.7928 18.7744 34.335 19.3482 35.6008 20.5618C36.8669 21.7754 37.5 23.3084 37.5 25.1609C37.5 26.8959 36.8776 29.3858 35.6329 30.6305C34.3882 31.8752 32.8983 32.4976 31.1633 32.4976H10.5546Z" fill="#464443"/>
<path d="M19.1658 29V27.0889C18.41 26.9111 17.7576 26.5704 17.2086 26.0667C16.6595 25.563 16.2567 24.8519 16 23.9333L17.5829 23.2667C17.7968 23.9778 18.1141 24.5185 18.5348 24.8889C18.9554 25.2593 19.508 25.4444 20.1925 25.4444C20.7772 25.4444 21.2727 25.3074 21.6791 25.0333C22.0856 24.7593 22.2888 24.3333 22.2888 23.7556C22.2888 23.237 22.1319 22.8259 21.8182 22.5222C21.5045 22.2185 20.7772 21.8741 19.6364 21.4889C18.41 21.0889 17.5686 20.6111 17.1123 20.0556C16.656 19.5 16.4278 18.8222 16.4278 18.0222C16.4278 17.0593 16.7273 16.3111 17.3262 15.7778C17.9251 15.2444 18.5383 14.9407 19.1658 14.8667V13H20.877V14.8667C21.59 14.9852 22.1783 15.2556 22.6417 15.6778C23.1052 16.1 23.4439 16.6148 23.6578 17.2222L22.0749 17.9333C21.9037 17.4593 21.6613 17.1037 21.3476 16.8667C21.0339 16.6296 20.6061 16.5111 20.0642 16.5111C19.4367 16.5111 18.959 16.6556 18.631 16.9444C18.303 17.2333 18.139 17.5926 18.139 18.0222C18.139 18.5111 18.3529 18.8963 18.7807 19.1778C19.2086 19.4593 19.9501 19.7556 21.0053 20.0667C21.9893 20.363 22.7344 20.8333 23.2406 21.4778C23.7469 22.1222 24 22.8667 24 23.7111C24 24.763 23.7005 25.563 23.1016 26.1111C22.5027 26.6593 21.7611 27 20.877 27.1333V29H19.1658Z" fill="#1C1B1F"/>
<path d="M4.72092 13L4.57961 11.6111C4.09128 11.5126 3.63169 11.3438 3.20084 11.1047C2.77023 10.8656 2.38892 10.5653 2.05689 10.2037L0.812506 10.7785L0 9.48357L1.08161 8.47638C0.930607 7.98373 0.855105 7.49166 0.855105 7.00017C0.855105 6.50845 0.930607 6.01638 1.08161 5.52397L0 4.51643L0.812506 3.22147L2.05689 3.79666C2.38892 3.43485 2.77023 3.13661 3.20084 2.90192C3.63169 2.66724 4.09128 2.49623 4.57961 2.3889L4.72092 1H6.29259L6.42039 2.3889C6.90895 2.49623 7.36855 2.66724 7.79916 2.90192C8.23 3.13661 8.61143 3.43485 8.94345 3.79666L10.1875 3.22147L11 4.51643L9.88376 5.52397C10.0438 6.00195 10.1238 6.49041 10.1238 6.98935C10.1238 7.48805 10.0438 7.98373 9.88376 8.47638L11 9.48357L10.1875 10.7785L8.94345 10.2037C8.61143 10.5797 8.23 10.8836 7.79916 11.1155C7.36855 11.3474 6.90895 11.5126 6.42039 11.6111L6.29259 13H4.72092ZM5.50675 10.2061C6.38414 10.2061 7.13234 9.89415 7.75136 9.27019C8.37038 8.64599 8.67989 7.89153 8.67989 7.00681C8.67989 6.11301 8.37038 5.35412 7.75136 4.73016C7.13234 4.10596 6.38414 3.79387 5.50675 3.79387C4.62059 3.79387 3.868 4.10596 3.24898 4.73016C2.62997 5.35412 2.32046 6.11301 2.32046 7.00681C2.32046 7.89153 2.62997 8.64599 3.24898 9.27019C3.868 9.89415 4.62059 10.2061 5.50675 10.2061Z" fill="#464443"/>
<path d="M33.7209 13L33.5796 11.6111C33.0913 11.5126 32.6317 11.3438 32.2008 11.1047C31.7702 10.8656 31.3889 10.5653 31.0569 10.2037L29.8125 10.7785L29 9.48357L30.0816 8.47638C29.9306 7.98373 29.8551 7.49166 29.8551 7.00017C29.8551 6.50845 29.9306 6.01638 30.0816 5.52397L29 4.51643L29.8125 3.22147L31.0569 3.79666C31.3889 3.43485 31.7702 3.13661 32.2008 2.90192C32.6317 2.66724 33.0913 2.49623 33.5796 2.3889L33.7209 1H35.2926L35.4204 2.3889C35.909 2.49623 36.3685 2.66724 36.7992 2.90192C37.23 3.13661 37.6114 3.43485 37.9435 3.79666L39.1875 3.22147L40 4.51643L38.8838 5.52397C39.0438 6.00195 39.1238 6.49041 39.1238 6.98935C39.1238 7.48805 39.0438 7.98373 38.8838 8.47638L40 9.48357L39.1875 10.7785L37.9435 10.2037C37.6114 10.5797 37.23 10.8836 36.7992 11.1155C36.3685 11.3474 35.909 11.5126 35.4204 11.6111L35.2926 13H33.7209ZM34.5068 10.2061C35.3841 10.2061 36.1323 9.89415 36.7514 9.27019C37.3704 8.64599 37.6799 7.89153 37.6799 7.00681C37.6799 6.11301 37.3704 5.35412 36.7514 4.73016C36.1323 4.10596 35.3841 3.79387 34.5068 3.79387C33.6206 3.79387 32.868 4.10596 32.249 4.73016C31.63 5.35412 31.3205 6.11301 31.3205 7.00681C31.3205 7.89153 31.63 8.64599 32.249 9.27019C32.868 9.89415 33.6206 10.2061 34.5068 10.2061Z" fill="#464443"/>
</g>
</svg>
