<svg width="40" height="40" viewBox="0 0 40 40" fill="none" xmlns="http://www.w3.org/2000/svg">
<mask id="mask0_2031_3044" style="mask-type:alpha" maskUnits="userSpaceOnUse" x="0" y="0" width="40" height="40">
<rect width="40" height="40" fill="white"/>
</mask>
<g mask="url(#mask0_2031_3044)">
<path d="M19.9974 35.8308C17.8093 35.8308 15.7523 35.4147 13.8261 34.5825C11.8998 33.7503 10.2239 32.6215 8.79865 31.1963C7.37337 29.771 6.24462 28.0951 5.4124 26.1688C4.58017 24.2426 4.16406 22.1856 4.16406 19.9975C4.16406 17.0253 4.92642 14.2865 6.45115 11.7813C7.97559 9.27597 10.0657 7.33958 12.7216 5.97208C12.7493 6.30958 12.7884 6.63167 12.8386 6.93833C12.8889 7.245 12.9482 7.57028 13.0166 7.91417C10.8499 9.175 9.14795 10.8807 7.91073 13.0313C6.67378 15.1818 6.05531 17.5039 6.05531 19.9975C6.05531 23.8778 7.40892 27.1715 10.1161 29.8787C12.8234 32.586 16.1171 33.9396 19.9974 33.9396C23.8777 33.9396 27.1714 32.586 29.8786 29.8787C32.5859 27.1715 33.9395 23.8778 33.9395 19.9975C33.9395 17.4761 33.3182 15.1417 32.0757 12.9942C30.8332 10.8469 29.1148 9.14833 26.9203 7.89833C26.9889 7.54778 27.0552 7.21917 27.1191 6.9125C27.1832 6.60583 27.2292 6.29236 27.257 5.97208C29.9131 7.33958 32.006 9.27597 33.5357 11.7813C35.0657 14.2865 35.8307 17.0253 35.8307 19.9975C35.8307 22.1856 35.4146 24.2426 34.5824 26.1688C33.7502 28.0951 32.6214 29.771 31.1961 31.1963C29.7709 32.6215 28.095 33.7503 26.1686 34.5825C24.2425 35.4147 22.1855 35.8308 19.9974 35.8308ZM19.9974 29.1642C17.4546 29.1642 15.2911 28.2721 13.507 26.4879C11.7228 24.7037 10.8307 22.5403 10.8307 19.9975C10.8307 18.5489 11.1475 17.1969 11.7811 15.9417C12.4148 14.6861 13.3063 13.6236 14.4557 12.7542C14.5455 13.0169 14.6395 13.3043 14.7378 13.6163C14.8361 13.9282 14.9611 14.2764 15.1128 14.6608C14.3414 15.3406 13.75 16.1403 13.3386 17.06C12.9275 17.98 12.722 18.9592 12.722 19.9975C12.722 22.0167 13.4298 23.734 14.8453 25.1496C16.2609 26.5651 17.9782 27.2729 19.9974 27.2729C22.0166 27.2729 23.7339 26.5651 25.1495 25.1496C26.565 23.734 27.2728 22.0167 27.2728 19.9975C27.2728 18.9483 27.0646 17.9692 26.6482 17.06C26.2316 16.1508 25.6375 15.3511 24.8661 14.6608C24.9792 14.3042 25.0582 14.0633 25.1032 13.9383C25.1479 13.8133 25.2793 13.4132 25.4974 12.7379C26.6577 13.6076 27.5588 14.6728 28.2007 15.9333C28.843 17.1942 29.1641 18.5489 29.1641 19.9975C29.1641 22.5403 28.272 24.7037 26.4878 26.4879C24.7036 28.2721 22.5402 29.1642 19.9974 29.1642ZM18.8886 13.4429C17.8609 10.3596 17.2145 8.28695 16.9495 7.225C16.6845 6.16306 16.552 5.14278 16.552 4.16417C16.552 3.19417 16.8836 2.37736 17.547 1.71375C18.2106 1.05042 19.0274 0.71875 19.9974 0.71875C20.9674 0.71875 21.7842 1.05042 22.4478 1.71375C23.1111 2.37736 23.4428 3.19417 23.4428 4.16417C23.4428 5.14278 23.3103 6.16306 23.0453 7.225C22.7803 8.28695 22.1339 10.3596 21.1061 13.4429H18.8886ZM19.9974 22.6096C19.2666 22.6096 18.6485 22.3569 18.1432 21.8517C17.638 21.3464 17.3853 20.7283 17.3853 19.9975C17.3853 19.2667 17.638 18.6486 18.1432 18.1433C18.6485 17.6381 19.2666 17.3854 19.9974 17.3854C20.7282 17.3854 21.3463 17.6381 21.8516 18.1433C22.3568 18.6486 22.6095 19.2667 22.6095 19.9975C22.6095 20.7283 22.3568 21.3464 21.8516 21.8517C21.3463 22.3569 20.7282 22.6096 19.9974 22.6096Z" fill="#464443"/>
</g>
</svg>
