<svg width="40" height="40" viewBox="0 0 40 40" fill="none" xmlns="http://www.w3.org/2000/svg">
<g clip-path="url(#clip0_2220_4172)">
<path d="M30.69 26.1551H32.2728C35.7396 26.1551 38.555 23.3737 38.555 19.9488C38.555 16.524 35.7396 13.7426 32.2728 13.7426H32.2168C32.693 10.463 30.1227 7.53628 26.775 7.53628C25.5564 7.53628 24.4358 7.93066 23.5253 8.58796C22.2087 6.1179 19.5893 4.42969 16.5708 4.42969C11.6262 4.42969 7.8863 8.90623 8.8738 13.7356H8.71973C5.24594 13.7426 2.4375 16.524 2.4375 19.9488C2.4375 23.3737 5.25295 26.1551 8.71973 26.1551H10.1274" stroke="white" stroke-width="1.25" stroke-linecap="round" stroke-linejoin="round"/>
<path d="M20.5041 15.707C19.0193 17.6374 16.1408 18.3016 12.8281 18.3016V25.3174C12.8281 30.9287 15.9167 32.949 20.5041 35.5712C25.0844 32.949 28.18 30.9287 28.18 25.3174V18.3016C24.8743 18.3016 21.9958 17.6374 20.5041 15.707Z" stroke="white" stroke-width="1.25" stroke-linecap="round" stroke-linejoin="round"/>
<path d="M24.7242 23.0273L19.8847 28.8531L17.1953 24.9785" stroke="white" stroke-width="1.25" stroke-linecap="round" stroke-linejoin="round"/>
</g>
<defs>
<clipPath id="clip0_2220_4172">
<rect width="37" height="32" fill="white" transform="translate(2 4)"/>
</clipPath>
</defs>
</svg>
