<svg width="40" height="40" viewBox="0 0 40 40" fill="none" xmlns="http://www.w3.org/2000/svg">
<path fill-rule="evenodd" clip-rule="evenodd" d="M4.84625 27.62C6.41042 29.1894 8.31319 29.9742 10.5546 29.9742H12.8333C11.08 28.1727 10 25.7125 10 23C10 17.4772 14.4772 13 20 13C25.5228 13 30 17.4772 30 23C30 25.7125 28.92 28.1727 27.1667 29.9742H31.1633C32.8983 29.9742 34.3882 29.3518 35.6329 28.1071C36.8776 26.8624 37.5 25.3725 37.5 23.6375C37.5 21.785 36.8669 20.2519 35.6008 19.0383C34.335 17.8247 32.7928 17.251 30.9742 17.3171H30.4617V15.74C30.4617 12.7872 29.4562 10.259 27.4454 8.15542C25.4349 6.0518 22.9756 5 20.0675 5C17.4692 5 15.1929 5.83806 13.2388 7.51417C11.2849 9.19056 10.0942 11.3225 9.66667 13.91C7.62389 14.1044 5.91875 14.9757 4.55125 16.5238C3.18375 18.0718 2.5 19.8651 2.5 21.9038C2.5 24.1451 3.28208 26.0506 4.84625 27.62Z" fill="#464443"/>
<path fill-rule="evenodd" clip-rule="evenodd" d="M20 31C24.4183 31 28 27.4183 28 23C28 18.5817 24.4183 15 20 15C15.5817 15 12 18.5817 12 23C12 27.4183 15.5817 31 20 31ZM19.3743 27.5667V29H20.6578V27.6C21.3209 27.5 21.877 27.2444 22.3262 26.8333C22.7754 26.4222 23 25.8222 23 25.0333C23 24.4 22.8102 23.8417 22.4305 23.3583C22.0508 22.875 21.492 22.5222 20.754 22.3C19.9626 22.0667 19.4064 21.8444 19.0856 21.6333C18.7647 21.4222 18.6043 21.1333 18.6043 20.7667C18.6043 20.4444 18.7273 20.175 18.9733 19.9583C19.2193 19.7417 19.5775 19.6333 20.0481 19.6333C20.4545 19.6333 20.7754 19.7222 21.0107 19.9C21.246 20.0778 21.4278 20.3444 21.5561 20.7L22.7433 20.1667C22.5829 19.7111 22.3289 19.325 21.9813 19.0083C21.6337 18.6917 21.1925 18.4889 20.6578 18.4V17H19.3743V18.4C18.9037 18.4556 18.4439 18.6833 17.9947 19.0833C17.5455 19.4833 17.3209 20.0444 17.3209 20.7667C17.3209 21.3667 17.492 21.875 17.8342 22.2917C18.1765 22.7083 18.8075 23.0667 19.7273 23.3667C20.5829 23.6556 21.1283 23.9139 21.3636 24.1417C21.5989 24.3694 21.7166 24.6778 21.7166 25.0667C21.7166 25.5 21.5642 25.8194 21.2594 26.025C20.9545 26.2306 20.5829 26.3333 20.1444 26.3333C19.631 26.3333 19.2166 26.1944 18.9011 25.9167C18.5856 25.6389 18.3476 25.2333 18.1872 24.7L17 25.2C17.1925 25.8889 17.4947 26.4222 17.9064 26.8C18.3182 27.1778 18.8075 27.4333 19.3743 27.5667Z" fill="#464443"/>
</svg>
