<svg width="40" height="40" viewBox="0 0 40 40" fill="none" xmlns="http://www.w3.org/2000/svg">
<mask id="mask0_2031_3035" style="mask-type:alpha" maskUnits="userSpaceOnUse" x="0" y="0" width="40" height="40">
<rect width="40" height="40" fill="#E3E3E3"/>
</mask>
<g mask="url(#mask0_2031_3035)">
<path d="M8.23448 35.8307C7.5792 35.8307 7.01476 35.5939 6.54115 35.1203C6.06753 34.6467 5.83073 34.0823 5.83073 33.427V13.7828C5.35851 13.6373 4.96267 13.3535 4.64323 12.9316C4.32378 12.5093 4.16406 12.0227 4.16406 11.4716V6.56781C4.16406 5.91253 4.40087 5.34809 4.87448 4.87448C5.34809 4.40087 5.91253 4.16406 6.56781 4.16406H33.427C34.0823 4.16406 34.6467 4.40087 35.1203 4.87448C35.5939 5.34809 35.8307 5.91253 35.8307 6.56781V11.4716C35.8307 12.0227 35.671 12.5093 35.3516 12.9316C35.0321 13.3535 34.6363 13.6373 34.1641 13.7828V33.427C34.1641 34.0823 33.9273 34.6467 33.4536 35.1203C32.98 35.5939 32.4156 35.8307 31.7603 35.8307H8.23448ZM6.56781 11.9845H33.427C33.5764 11.9845 33.6992 11.9364 33.7953 11.8403C33.8914 11.7442 33.9395 11.6213 33.9395 11.4716V6.56781C33.9395 6.41837 33.8914 6.29559 33.7953 6.19948C33.6992 6.10337 33.5764 6.05531 33.427 6.05531H6.56781C6.41837 6.05531 6.29559 6.10337 6.19948 6.19948C6.10337 6.29559 6.05531 6.41837 6.05531 6.56781V11.4716C6.05531 11.6213 6.10337 11.7442 6.19948 11.8403C6.29559 11.9364 6.41837 11.9845 6.56781 11.9845ZM15.3178 21.7761H24.677V19.9974H15.3178V21.7761Z" fill="#464443"/>
</g>
</svg>
