<svg width="40" height="40" viewBox="0 0 40 40" fill="none" xmlns="http://www.w3.org/2000/svg">
<mask id="mask0_2031_3050" style="mask-type:alpha" maskUnits="userSpaceOnUse" x="0" y="0" width="40" height="40">
<rect width="40" height="40" fill="white"/>
</mask>
<g mask="url(#mask0_2031_3050)">
<path d="M17.1825 27.7797L26.1571 18.8214L24.8908 17.5555L17.2242 25.2222L13.2021 21.2155L11.9104 22.5072L17.1825 27.7797ZM10.5546 32.4976C8.31319 32.4976 6.41042 31.7129 4.84625 30.1434C3.28208 28.574 2.5 26.6686 2.5 24.4272C2.5 22.3886 3.18375 20.5952 4.55125 19.0472C5.91875 17.4991 7.62389 16.6279 9.66667 16.4334C10.0942 13.8459 11.2849 11.714 13.2388 10.0376C15.1929 8.36149 17.4692 7.52344 20.0675 7.52344C22.9756 7.52344 25.4349 8.57524 27.4454 10.6789C29.4562 12.7825 30.4617 15.3107 30.4617 18.2634V19.8405H30.9742C32.7928 19.7744 34.335 20.3482 35.6008 21.5618C36.8669 22.7754 37.5 24.3084 37.5 26.1609C37.5 27.8959 36.8776 29.3858 35.6329 30.6305C34.3882 31.8752 32.8983 32.4976 31.1633 32.4976H10.5546Z" fill="#464443"/>
</g>
</svg>
