<svg width="40" height="40" viewBox="0 0 40 40" fill="none" xmlns="http://www.w3.org/2000/svg">
<mask id="mask0_2031_3041" style="mask-type:alpha" maskUnits="userSpaceOnUse" x="0" y="0" width="40" height="40">
<rect width="40" height="40" fill="white"/>
</mask>
<g mask="url(#mask0_2031_3041)">
<path d="M19.9961 10.9203C20.3164 10.9203 20.5859 10.8116 20.8045 10.5941C21.0228 10.3766 21.132 10.1077 21.132 9.7874C21.132 9.46684 21.0232 9.1974 20.8057 8.97906C20.5882 8.76045 20.3192 8.65115 19.9986 8.65115C19.6784 8.65115 19.4089 8.7599 19.1903 8.9774C18.972 9.19517 18.8628 9.4642 18.8628 9.78448C18.8628 10.1048 18.9716 10.3742 19.1891 10.5928C19.4066 10.8111 19.6756 10.9203 19.9961 10.9203ZM19.052 24.3049H20.9428V13.9107H19.052V24.3049ZM4.16406 35.0616V6.56781C4.16406 5.9142 4.40128 5.35017 4.87573 4.87573C5.35017 4.40129 5.9142 4.16406 6.56781 4.16406H33.427C34.0806 4.16406 34.6446 4.40129 35.1191 4.87573C35.5935 5.35017 35.8307 5.9142 35.8307 6.56781V26.7603C35.8307 27.4139 35.5935 27.978 35.1191 28.4524C34.6446 28.9268 34.0806 29.1641 33.427 29.1641H10.0616L4.16406 35.0616Z" fill="#464443"/>
</g>
</svg>
