<svg width="40" height="40" viewBox="0 0 40 40" fill="none" xmlns="http://www.w3.org/2000/svg">
<mask id="mask0_2031_3047" style="mask-type:alpha" maskUnits="userSpaceOnUse" x="0" y="0" width="40" height="40">
<rect width="40" height="40" fill="#E3E3E3"/>
</mask>
<g mask="url(#mask0_2031_3047)">
<path d="M18.1796 24.5815H21.8204L20.8271 18.8281C21.3635 18.6167 21.7924 18.2908 22.1137 17.8502C22.4354 17.4097 22.5962 16.913 22.5962 16.3602C22.5962 15.6435 22.3424 15.0317 21.8346 14.5248C21.3268 14.0178 20.714 13.7644 19.9963 13.7644C19.2788 13.7644 18.6674 14.0178 18.1621 14.5248C17.6565 15.0317 17.4038 15.6435 17.4038 16.3602C17.4038 16.913 17.5646 17.4097 17.8862 17.8502C18.2076 18.2908 18.6365 18.6167 19.1729 18.8281L18.1796 24.5815ZM20 35.7735C16.3783 34.7799 13.3896 32.6245 11.0337 29.3073C8.67792 25.9901 7.5 22.3165 7.5 18.2865V8.88271L20 4.20312L32.5 8.88271V18.2865C32.5 22.3165 31.3221 25.9901 28.9662 29.3073C26.6104 32.6245 23.6217 34.7799 20 35.7735Z" fill="#464443"/>
</g>
</svg>
