<svg width="20" height="20" viewBox="0 0 20 20" fill="none" xmlns="http://www.w3.org/2000/svg">
<mask id="mask0_2027_8250" style="mask-type:alpha" maskUnits="userSpaceOnUse" x="0" y="0" width="20" height="20">
<rect width="20" height="20" fill="#C8125B"/>
</mask>
<g mask="url(#mask0_2027_8250)">
<path d="M5.2 15C4.87 15 4.5875 14.8776 4.3525 14.6328C4.1175 14.388 4 14.0938 4 13.75V6.25C4 5.90625 4.1175 5.61198 4.3525 5.36719C4.5875 5.1224 4.87 5 5.2 5H14.8C15.13 5 15.4125 5.1224 15.6475 5.36719C15.8825 5.61198 16 5.90625 16 6.25V13.75C16 14.0938 15.8825 14.388 15.6475 14.6328C15.4125 14.8776 15.13 15 14.8 15H5.2ZM10 10.625L14.8 7.5V6.25L10 9.375L5.2 6.25V7.5L10 10.625Z" fill="#C8125B"/>
</g>
</svg>
