<svg width="40" height="40" viewBox="0 0 40 40" fill="none" xmlns="http://www.w3.org/2000/svg">
<mask id="mask0_2027_5634" style="mask-type:alpha" maskUnits="userSpaceOnUse" x="0" y="0" width="40" height="40">
<rect width="40" height="40" fill="#D9D9D9"/>
</mask>
<g mask="url(#mask0_2027_5634)">
<path d="M27.8568 23.4229C27.8568 23.4229 29.5505 22.1573 31.6776 20.5967C33.618 19.1671 35.1783 19.5081 36.4719 20.5245C36.7853 20.7737 36.8053 21.2393 36.5119 21.5081L26.8166 30.4852C26.5499 30.7278 26.2032 30.8655 25.8364 30.8655H14.4608C13.614 30.8655 12.8071 31.2065 12.2337 31.8163L9.45312 34.7278" stroke="white" stroke-linecap="round" stroke-linejoin="round"/>
<path d="M18.2586 26.7022H26.1401C26.3802 26.7022 26.5736 26.4989 26.5602 26.2629C26.3669 23.6399 24.4465 23.3907 23.8463 23.3907H19.8922C18.0518 22.1776 16.8983 21.9219 14.7445 21.9219C12.164 21.9219 10.0902 23.1481 7.48304 26.3743L4.28906 29.3317" stroke="white" stroke-linecap="round" stroke-linejoin="round"/>
<path d="M27.1506 19.196C29.4644 19.196 31.3381 17.3534 31.3381 15.078C31.3381 12.8026 29.4644 10.9599 27.1506 10.9599C27.1506 7.82551 24.5634 5.28125 21.3761 5.28125C18.1888 5.28125 15.6016 7.82551 15.6016 10.9599C13.2878 10.9599 11.4141 12.8026 11.4141 15.078C11.4141 17.3534 13.2878 19.196 15.6016 19.196H27.1506Z" stroke="white" stroke-linecap="round" stroke-linejoin="round"/>
</g>
</svg>
