<svg width="40" height="40" viewBox="0 0 40 40" fill="none" xmlns="http://www.w3.org/2000/svg">
<mask id="mask0_2027_6125" style="mask-type:alpha" maskUnits="userSpaceOnUse" x="0" y="0" width="40" height="40">
<rect width="40" height="40" fill="#D9D9D9"/>
</mask>
<g mask="url(#mask0_2027_6125)">
</g>
<g clip-path="url(#clip0_2027_6125)">
<path d="M10.7734 11.5859H14.6495L17.3591 16.2188H19.5827" stroke="white" stroke-linecap="round" stroke-linejoin="round"/>
<path d="M10.7734 27.9359H14.6495L17.3591 23.2969H19.5827" stroke="white" stroke-linecap="round" stroke-linejoin="round"/>
<path d="M15.7344 31.625H19.5801" stroke="white" stroke-linecap="round" stroke-linejoin="round"/>
<path d="M14.4651 9.18994C15.1663 9.18994 15.7348 8.61576 15.7348 7.90747C15.7348 7.19918 15.1663 6.625 14.4651 6.625C13.7638 6.625 13.1953 7.19918 13.1953 7.90747C13.1953 8.61576 13.7638 9.18994 14.4651 9.18994Z" stroke="white" stroke-linecap="round" stroke-linejoin="round"/>
<path d="M14.4651 32.9087C15.1663 32.9087 15.7348 32.3345 15.7348 31.6262C15.7348 30.9179 15.1663 30.3438 14.4651 30.3438C13.7638 30.3438 13.1953 30.9179 13.1953 31.6262C13.1953 32.3345 13.7638 32.9087 14.4651 32.9087Z" stroke="white" stroke-linecap="round" stroke-linejoin="round"/>
<path d="M9.50412 29.2212C10.2054 29.2212 10.7739 28.647 10.7739 27.9387C10.7739 27.2304 10.2054 26.6562 9.50412 26.6562C8.80286 26.6562 8.23438 27.2304 8.23438 27.9387C8.23438 28.647 8.80286 29.2212 9.50412 29.2212Z" stroke="white" stroke-linecap="round" stroke-linejoin="round"/>
<path d="M9.50412 12.8696C10.2054 12.8696 10.7739 12.2954 10.7739 11.5872C10.7739 10.8789 10.2054 10.3047 9.50412 10.3047C8.80286 10.3047 8.23438 10.8789 8.23438 11.5872C8.23438 12.2954 8.80286 12.8696 9.50412 12.8696Z" stroke="white" stroke-linecap="round" stroke-linejoin="round"/>
<path d="M15.7344 7.90625H19.5801" stroke="white" stroke-linecap="round" stroke-linejoin="round"/>
<path d="M12.7212 16.9C13.2748 16.9 13.7236 16.4467 13.7236 15.8875C13.7236 15.3283 13.2748 14.875 12.7212 14.875C12.1676 14.875 11.7188 15.3283 11.7188 15.8875C11.7188 16.4467 12.1676 16.9 12.7212 16.9Z" stroke="white" stroke-linecap="round" stroke-linejoin="round"/>
<path d="M12.7212 24.689C13.2748 24.689 13.7236 24.2357 13.7236 23.6765C13.7236 23.1174 13.2748 22.6641 12.7212 22.6641C12.1676 22.6641 11.7188 23.1174 11.7188 23.6765C11.7188 24.2357 12.1676 24.689 12.7212 24.689Z" stroke="white" stroke-linecap="round" stroke-linejoin="round"/>
<path d="M6.86778 21.385C7.75693 21.385 8.47774 20.657 8.47774 19.7589C8.47774 18.8608 7.75693 18.1328 6.86778 18.1328C5.97862 18.1328 5.25781 18.8608 5.25781 19.7589C5.25781 20.657 5.97862 21.385 6.86778 21.385Z" stroke="white" stroke-linecap="round" stroke-linejoin="round"/>
<path d="M9.78125 19.7578H19.5808" stroke="white" stroke-linecap="round" stroke-linejoin="round"/>
<path d="M17.2812 28.0703H19.3894" stroke="white" stroke-linecap="round" stroke-linejoin="round"/>
<path d="M17.2812 11.4375H19.3894" stroke="white" stroke-linecap="round" stroke-linejoin="round"/>
<path d="M23.5234 15.621C23.6267 17.3759 25.1213 18.7136 26.8588 18.6032C28.5963 18.4988 29.9208 16.9893 29.8175 15.2344" stroke="white" stroke-linecap="round" stroke-linejoin="round"/>
<path d="M28.2904 27.5394C28.7157 25.8335 27.6889 24.1031 26 23.6797" stroke="white" stroke-linecap="round" stroke-linejoin="round"/>
<path d="M29.9933 11.3438C28.0371 11.3438 26.4453 12.9453 26.4453 14.9273" stroke="white" stroke-linecap="round" stroke-linejoin="round"/>
<path d="M30.9219 23.3101C32.8781 23.3101 34.4699 21.7086 34.4699 19.7266" stroke="white" stroke-linecap="round" stroke-linejoin="round"/>
<path d="M25.5609 26.1797C23.2219 26.1797 21.3203 28.0942 21.3203 30.4628" stroke="white" stroke-linecap="round" stroke-linejoin="round"/>
<path d="M34.7503 24.0302C34.7503 23.1527 34.3979 22.3611 33.8329 21.7843C34.2399 21.2014 34.4769 20.4957 34.4769 19.7287C34.4769 18.5321 33.8937 17.4706 32.9945 16.8201C33.3347 16.2679 33.5352 15.6236 33.5352 14.924C33.5352 13.0402 32.0954 11.5062 30.2728 11.3589C30.5158 10.911 30.6555 10.3894 30.6555 9.84325C30.6555 8.08215 29.246 6.65855 27.5024 6.65855C27.3687 6.65855 27.2351 6.67082 27.1075 6.68923C26.5425 5.83016 25.5765 5.26562 24.483 5.26562C22.7636 5.26562 21.3663 6.65855 21.3359 8.38283V30.3812C21.3359 30.3812 21.3359 30.4364 21.3359 30.461C21.3359 32.8234 23.2314 34.744 25.5765 34.744C27.5146 34.744 29.1488 33.4309 29.6531 31.633C31.1112 31.3507 32.2108 30.0621 32.2108 28.5096C32.2108 28.0433 32.1075 27.6076 31.9313 27.2088C33.517 27.0431 34.7564 25.687 34.7564 24.0425L34.7503 24.0302Z" stroke="white" stroke-linecap="round" stroke-linejoin="round"/>
</g>
<defs>
<clipPath id="clip0_2027_6125">
<rect width="30" height="30" fill="white" transform="translate(5 5)"/>
</clipPath>
</defs>
</svg>
