<svg width="40" height="40" viewBox="0 0 40 40" fill="none" xmlns="http://www.w3.org/2000/svg">
<mask id="mask0_2027_5609" style="mask-type:alpha" maskUnits="userSpaceOnUse" x="0" y="0" width="40" height="40">
<rect width="40" height="40" fill="#D9D9D9"/>
</mask>
<g mask="url(#mask0_2027_5609)">
</g>
<g clip-path="url(#clip0_2027_5609)">
<path d="M21.7031 33.7848H28.6856C30.475 33.7848 31.925 32.3549 31.925 30.5903V24.181H34.1873L30.3002 20.5859L26.413 24.181H28.6754" stroke="white" stroke-linecap="round" stroke-linejoin="round"/>
<path d="M11.7385 15.0034H14.0009L10.1137 18.5985L6.22656 15.0034H8.48894V9.40543C8.48894 7.64085 9.93892 6.21094 11.7283 6.21094H20.4076" stroke="white" stroke-linecap="round" stroke-linejoin="round"/>
<path d="M5.41179 32.1409C3.64816 32.1409 2.21875 30.7313 2.21875 28.9921C2.21875 27.2528 3.64816 25.8432 5.41179 25.8432C5.41179 23.4499 7.38108 21.5078 9.808 21.5078C12.2349 21.5078 14.2042 23.4499 14.2042 25.8432C15.9678 25.8432 17.3972 27.2528 17.3972 28.9921C17.3972 30.7313 15.9678 32.1409 14.2042 32.1409H5.41179Z" stroke="white" stroke-linecap="round" stroke-linejoin="round"/>
<path d="M31.0786 15.0781H28.2969V18.303H31.0786V15.0781Z" stroke="white" stroke-linecap="round" stroke-linejoin="round"/>
<path d="M28.5119 18.2969H25.8125" stroke="white" stroke-linecap="round" stroke-linejoin="round"/>
<path d="M28.296 18.2969H25.8125" stroke="white" stroke-linecap="round" stroke-linejoin="round"/>
<path d="M33.5616 18.2969H31.0781" stroke="white" stroke-linecap="round" stroke-linejoin="round"/>
<path d="M31.0781 16.1953V18.2996" stroke="white" stroke-linecap="round" stroke-linejoin="round"/>
<path d="M28.2969 16.1953V18.2996" stroke="white" stroke-linecap="round" stroke-linejoin="round"/>
<path d="M29.6816 15.0748H22.5859V6.51562H36.7772V15.0748H32.3142" stroke="white" stroke-linecap="round" stroke-linejoin="round"/>
</g>
<defs>
<clipPath id="clip0_2027_5609">
<rect width="35" height="28" fill="white" transform="translate(2 6)"/>
</clipPath>
</defs>
</svg>
