<svg width="40" height="40" viewBox="0 0 40 40" fill="none" xmlns="http://www.w3.org/2000/svg">
<mask id="mask0_2027_6505" style="mask-type:alpha" maskUnits="userSpaceOnUse" x="0" y="0" width="40" height="40">
<rect width="40" height="40" fill="#D9D9D9"/>
</mask>
<g mask="url(#mask0_2027_6505)">
<path d="M20.5682 18.0572C20.5682 22.4802 16.9176 26.0597 12.4208 26.0597C7.92396 26.0597 4.27344 22.4802 4.27344 18.0572C4.27344 13.6341 7.92396 10.0547 12.4208 10.0547C16.9176 10.0547 20.5682 13.6403 20.5682 18.0572Z" stroke="white" stroke-linecap="round" stroke-linejoin="round"/>
<path d="M14.8843 15.9505C14.0758 13.8352 10.4253 14.0833 10.4 16.2917C10.3874 17.2781 11.5685 17.7309 12.5474 17.886C16.1348 18.4443 15.1432 21.757 12.5474 21.6329C10.5769 21.5399 10.0085 20.2309 9.94531 19.9146" stroke="white" stroke-linecap="round" stroke-linejoin="round"/>
<path d="M12.6016 12.7109V14.4913" stroke="white" stroke-linecap="round" stroke-linejoin="round"/>
<path d="M12.6016 21.6328V23.407" stroke="white" stroke-linecap="round" stroke-linejoin="round"/>
<path d="M32.2495 34.7305C31.0369 34.7305 31.0369 32.9688 29.8179 32.9688C28.599 32.9688 28.6053 34.7305 27.3863 34.7305C26.1737 34.7305 26.1737 32.9688 24.9548 32.9688C23.7358 32.9688 23.7421 34.7305 22.5232 34.7305C21.3106 34.7305 21.3106 32.9688 20.0916 32.9688C18.879 32.9688 18.879 34.7305 17.66 34.7305C16.4474 34.7305 16.4474 32.9688 15.2285 32.9688C14.0095 32.9688 14.0095 34.7305 12.7969 34.7305" stroke="white" stroke-linecap="round" stroke-linejoin="round"/>
<path d="M32.25 34.7321V7.46786C32.25 6.25198 33.2542 5.26562 34.4921 5.26562C35.73 5.26562 36.7342 6.25198 36.7342 7.46786V18.1689H33.5384" stroke="white" stroke-linecap="round" stroke-linejoin="round"/>
<path d="M12.6172 9.65148V7.46786C12.6172 6.25198 13.6214 5.26562 14.8593 5.26562H34.4888" stroke="white" stroke-linecap="round" stroke-linejoin="round"/>
<path d="M12.6172 34.7349V27.5078" stroke="white" stroke-linecap="round" stroke-linejoin="round"/>
<path d="M25.2266 11.3281H29.3066" stroke="white" stroke-linecap="round" stroke-linejoin="round"/>
<path d="M24.8125 23.0781H29.303" stroke="white" stroke-linecap="round" stroke-linejoin="round"/>
<path d="M21.1406 25.9531H29.3006" stroke="white" stroke-linecap="round" stroke-linejoin="round"/>
<path d="M21.1406 28.8281H29.3006" stroke="white" stroke-linecap="round" stroke-linejoin="round"/>
</g>
</svg>
