<svg width="40" height="40" viewBox="0 0 40 40" fill="none" xmlns="http://www.w3.org/2000/svg">
<mask id="mask0_2027_6548" style="mask-type:alpha" maskUnits="userSpaceOnUse" x="0" y="0" width="40" height="40">
<rect width="40" height="40" fill="#D9D9D9"/>
</mask>
<g mask="url(#mask0_2027_6548)">
<path d="M27.3864 17.8841V9.44398L20.0018 5.22656L12.6172 9.44398V17.8841L20.0018 22.1069L27.3864 17.8841Z" stroke="white" stroke-linecap="round" stroke-linejoin="round"/>
<path d="M15.6562 11.1822L20.0033 13.668L27.3879 9.44531" stroke="white" stroke-linecap="round" stroke-linejoin="round"/>
<path d="M20 20.2636V13.6719" stroke="white" stroke-linecap="round" stroke-linejoin="round"/>
<path d="M20.0036 28.5563V22.1134L12.619 17.8906L5.23438 22.1134V30.5535L12.619 34.7762L20.0036 30.5535" stroke="white" stroke-linecap="round" stroke-linejoin="round"/>
<path d="M5.23438 22.1172L12.619 26.3399L17.8784 23.3282" stroke="white" stroke-linecap="round" stroke-linejoin="round"/>
<path d="M12.6172 30.7764V26.3359" stroke="white" stroke-linecap="round" stroke-linejoin="round"/>
<path d="M20 30.5535L27.3846 34.7762L34.7746 30.5535V22.1134L27.3846 17.8906L20 22.1134" stroke="white" stroke-linecap="round" stroke-linejoin="round"/>
<path d="M22.125 23.3281L27.3844 26.3398L30.2932 24.6773" stroke="white" stroke-linecap="round" stroke-linejoin="round"/>
<path d="M27.3828 31.8069V26.3359" stroke="white" stroke-linecap="round" stroke-linejoin="round"/>
</g>
</svg>
