<svg width="40" height="40" viewBox="0 0 40 40" fill="none" xmlns="http://www.w3.org/2000/svg">
<mask id="mask0_2027_5152" style="mask-type:alpha" maskUnits="userSpaceOnUse" x="0" y="0" width="40" height="40">
<rect width="40" height="40" fill="#D9D9D9"/>
</mask>
<g mask="url(#mask0_2027_5152)">
</g>
<g clip-path="url(#clip0_2027_5152)">
<path d="M5.39062 20.0058C5.39062 20.0058 7.62727 20.0058 9.06705 20.0058C9.72808 20.0058 10.2623 20.54 10.2623 21.2011V22.3058C10.2623 23.5826 11.2946 24.8051 12.5714 24.8775C13.975 24.9499 15.1341 23.8361 15.1341 22.4416V21.2011C15.1341 20.54 15.6683 20.0058 16.3294 20.0058C17.7691 20.0058 20.0058 20.0058 20.0058 20.0058V16.3294C20.0058 15.6683 19.4715 15.1341 18.8105 15.1341H17.7057C16.429 15.1341 15.2065 14.1018 15.1341 12.825C15.0616 11.4214 16.1754 10.2623 17.5699 10.2623H18.8105C19.4715 10.2623 20.0058 9.72808 20.0058 9.06705V5.39062H8.40602C6.73986 5.39062 5.39062 6.73986 5.39062 8.40602V18.1223" stroke="white" stroke-linecap="round" stroke-linejoin="round"/>
<path d="M20.0058 34.623C20.0058 34.623 20.0058 32.3863 20.0058 30.9465C20.0058 30.2855 20.54 29.7512 21.2011 29.7512H22.3058C23.5826 29.7512 24.8051 28.719 24.8775 27.4422C24.9499 26.0386 23.8361 24.8795 22.4416 24.8795H21.2011C20.54 24.8795 20.0058 24.3453 20.0058 23.6842C20.0058 22.2445 20.0058 20.0078 20.0058 20.0078H16.3294C15.6683 20.0078 15.1341 20.5421 15.1341 21.2031V22.3078C15.1341 23.5846 14.1018 24.8071 12.825 24.8795C11.4214 24.952 10.2623 23.8382 10.2623 22.4437V21.2031C10.2623 20.5421 9.72808 20.0078 9.06705 20.0078H5.39062V31.6076C5.39062 33.2737 6.73986 34.623 8.40602 34.623H15.1341" stroke="white" stroke-linecap="round" stroke-linejoin="round"/>
<path d="M34.623 20.0079H30.9465C30.2855 20.0079 29.7512 19.4736 29.7512 18.8126V17.7078C29.7512 16.4311 28.719 15.2086 27.4422 15.1362C26.0386 15.0637 24.8795 16.1775 24.8795 17.572V18.8126C24.8795 19.4736 24.3453 20.0079 23.6842 20.0079H20.0078V23.6843C20.0078 24.3453 20.5421 24.8796 21.2031 24.8796H22.3078C23.5846 24.8796 24.8071 25.9119 24.8795 27.1887C24.952 28.5922 23.8382 29.7513 22.4437 29.7513H21.2031C20.5421 29.7513 20.0078 30.2856 20.0078 30.9466V34.623H31.6076C33.2737 34.623 34.623 33.2738 34.623 31.6076V21.8914" stroke="white" stroke-linecap="round" stroke-linejoin="round"/>
<path d="M20.0079 5.39062C20.0079 5.39062 20.0079 7.62727 20.0079 9.06705C20.0079 9.72808 19.4736 10.2623 18.8126 10.2623H17.7078C16.4311 10.2623 15.2086 11.2946 15.1362 12.5714C15.0637 13.975 16.1775 15.1341 17.572 15.1341H18.8126C19.4736 15.1341 20.0079 15.6683 20.0079 16.3294V20.0058H23.6843C24.3453 20.0058 24.8796 19.4715 24.8796 18.8105V17.7057C24.8796 16.429 25.9119 15.2065 27.1887 15.1341C28.5922 15.0616 29.7513 16.1754 29.7513 17.5699V18.8105C29.7513 19.4715 30.2856 20.0058 30.9466 20.0058H34.623V8.40602C34.623 6.73986 33.2738 5.39062 31.6076 5.39062H21.8914" stroke="white" stroke-linecap="round" stroke-linejoin="round"/>
</g>
<defs>
<clipPath id="clip0_2027_5152">
<rect width="30" height="30" fill="white" transform="translate(5 5)"/>
</clipPath>
</defs>
</svg>
