<svg width="40" height="40" viewBox="0 0 40 40" fill="none" xmlns="http://www.w3.org/2000/svg">
<mask id="mask0_2027_5934" style="mask-type:alpha" maskUnits="userSpaceOnUse" x="0" y="0" width="40" height="40">
<rect width="40" height="40" fill="white"/>
</mask>
<g mask="url(#mask0_2027_5934)">
<path d="M5.16948 34.1631L4.94531 32.939L7.2424 30.6523V34.1631H5.16948ZM12.5732 34.1631V25.396L13.9836 23.9856V34.1631H12.5732ZM19.2936 34.1631V23.9856L20.7036 25.4377V34.1631H19.2936ZM26.0349 34.1631V25.4377L27.4453 24.0273V34.1631H26.0349ZM32.7549 34.1631V18.7294L34.1653 17.319V34.1631H32.7549ZM5.83198 23.974V22.0094L16.6653 11.189L23.332 17.8556L34.1653 7.01562V9.00187L23.332 19.8415L16.6653 13.1748L5.83198 23.974Z" fill="white"/>
</g>
</svg>
