<svg width="40" height="40" viewBox="0 0 40 40" fill="none" xmlns="http://www.w3.org/2000/svg">
<mask id="mask0_2027_6157" style="mask-type:alpha" maskUnits="userSpaceOnUse" x="0" y="0" width="40" height="40">
<rect width="40" height="40" fill="#D9D9D9"/>
</mask>
<g mask="url(#mask0_2027_6157)">
<path d="M12.7478 13.7734C12.3362 13.7734 11.9306 13.8151 11.5429 13.8985L11.358 15.4471C10.8092 15.6317 10.3141 15.9235 9.88464 16.2988L8.4471 15.6853C7.91026 16.2809 7.49271 16.9896 7.24219 17.7699L8.48885 18.7049C8.43517 18.9789 8.40535 19.2648 8.40535 19.5507C8.40535 19.8366 8.43517 20.1225 8.48885 20.4024L7.24219 21.3375C7.49868 22.1177 7.91026 22.8264 8.4471 23.422L9.88464 22.8086C10.3082 23.1838 10.8092 23.4756 11.358 23.6603L11.5429 25.2088C11.9306 25.2922 12.3362 25.3339 12.7478 25.3339M12.7478 21.2243C11.8232 21.2243 11.0776 20.4798 11.0776 19.5566C11.0776 18.6335 11.8232 17.889 12.7478 17.889" stroke="white" stroke-width="0.85" stroke-linecap="round" stroke-linejoin="round"/>
<path d="M33.4384 24.5906V28.3368C33.4384 29.3434 32.6212 30.1653 31.6072 30.1653H5.08123C4.07316 30.1653 3.25 29.3493 3.25 28.3368V12.3928C3.25 11.3863 4.06719 10.5703 5.08123 10.5703H12.084" stroke="white" stroke-linecap="round" stroke-linejoin="round"/>
<path d="M7.16406 27.1016H29.5325" stroke="white" stroke-linecap="round" stroke-linejoin="round"/>
<path d="M15.4297 31.1953V34.745" stroke="white" stroke-linecap="round" stroke-linejoin="round"/>
<path d="M21.2656 30.1641V33.3207" stroke="white" stroke-linecap="round" stroke-linejoin="round"/>
<path d="M12.6016 34.7422H33.4012" stroke="white" stroke-linecap="round" stroke-linejoin="round"/>
<path d="M18.3538 28.8125H18.3359V28.8304H18.3538V28.8125Z" stroke="white" stroke-linecap="round" stroke-linejoin="round"/>
<path d="M34.9806 22.1172C35.9589 22.1172 36.7522 21.325 36.7522 20.3483V7.01891C36.7522 6.04214 35.9589 5.25 34.9806 5.25H16.7638C15.7855 5.25 14.9922 6.04214 14.9922 7.01891V20.3483C14.9922 21.325 15.7855 22.1172 16.7638 22.1172H34.9806Z" stroke="white" stroke-linecap="round" stroke-linejoin="round"/>
<path d="M14.9922 9.53906H36.7462" stroke="white" stroke-linecap="round" stroke-linejoin="round"/>
<path d="M17.6953 7.58338V7.5" stroke="white" stroke-linecap="round" stroke-linejoin="round"/>
<path d="M19.6016 7.58338V7.5" stroke="white" stroke-linecap="round" stroke-linejoin="round"/>
<path d="M21.5156 7.58338V7.5" stroke="white" stroke-linecap="round" stroke-linejoin="round"/>
<path d="M24.8125 13.1719H32.215" stroke="white" stroke-linecap="round" stroke-linejoin="round"/>
<path d="M24.8125 15.4922H32.215" stroke="white" stroke-linecap="round" stroke-linejoin="round"/>
<path d="M24.8125 17.8203H28.5764" stroke="white" stroke-linecap="round" stroke-linejoin="round"/>
<path d="M20.6641 13.25V17.6931" stroke="white" stroke-linecap="round" stroke-linejoin="round"/>
<path d="M18.9375 13.1875H22.3971" stroke="white" stroke-linecap="round" stroke-linejoin="round"/>
</g>
</svg>
