<svg width="40" height="40" viewBox="0 0 40 40" fill="none" xmlns="http://www.w3.org/2000/svg">
<mask id="mask0_2423_4610" style="mask-type:alpha" maskUnits="userSpaceOnUse" x="0" y="0" width="40" height="40">
<rect width="40" height="40" fill="#D9D9D9"/>
</mask>
<g mask="url(#mask0_2423_4610)">
<path d="M22.7344 24.9975V15.3125H24.2684V24.9975H22.7344Z" fill="white"/>
<path d="M13.1406 24.9975L16.5466 15.3125H18.4446L21.8506 24.9975H20.2126L19.4716 22.8265H15.5326L14.7786 24.9975H13.1406ZM15.9746 21.4615H19.0036L17.4956 17.0155L15.9746 21.4615Z" fill="white"/>
<rect x="8.5" y="9.5" width="22" height="22" rx="3.5" stroke="white"/>
<path d="M6.47656 25.2812H8.32656" stroke="white" stroke-linecap="round" stroke-linejoin="round"/>
<path d="M5.20724 16.5649C5.90851 16.5649 6.47699 15.9908 6.47699 15.2825C6.47699 14.5742 5.90851 14 5.20724 14C4.50598 14 3.9375 14.5742 3.9375 15.2825C3.9375 15.9908 4.50598 16.5649 5.20724 16.5649Z" stroke="white" stroke-linecap="round" stroke-linejoin="round"/>
<path d="M5.20724 26.5649C5.90851 26.5649 6.47699 25.9908 6.47699 25.2825C6.47699 24.5742 5.90851 24 5.20724 24C4.50598 24 3.9375 24.5742 3.9375 25.2825C3.9375 25.9908 4.50598 26.5649 5.20724 26.5649Z" stroke="white" stroke-linecap="round" stroke-linejoin="round"/>
<path d="M6.47656 15.2812H8.32656" stroke="white" stroke-linecap="round" stroke-linejoin="round"/>
<path d="M2.60996 21.76C3.49912 21.76 4.21993 21.032 4.21993 20.1339C4.21993 19.2358 3.49912 18.5078 2.60996 18.5078C1.72081 18.5078 1 19.2358 1 20.1339C1 21.032 1.72081 21.76 2.60996 21.76Z" stroke="white" stroke-linecap="round" stroke-linejoin="round"/>
<path d="M4.5 20L8 20" stroke="white" stroke-linecap="round" stroke-linejoin="round"/>
<path d="M32.8516 25.2812H31.0016" stroke="white" stroke-linecap="round" stroke-linejoin="round"/>
<path d="M34.1209 16.5649C33.4196 16.5649 32.8511 15.9908 32.8511 15.2825C32.8511 14.5742 33.4196 14 34.1209 14C34.8221 14 35.3906 14.5742 35.3906 15.2825C35.3906 15.9908 34.8221 16.5649 34.1209 16.5649Z" stroke="white" stroke-linecap="round" stroke-linejoin="round"/>
<path d="M34.1209 26.5649C33.4196 26.5649 32.8511 25.9908 32.8511 25.2825C32.8511 24.5742 33.4196 24 34.1209 24C34.8221 24 35.3906 24.5742 35.3906 25.2825C35.3906 25.9908 34.8221 26.5649 34.1209 26.5649Z" stroke="white" stroke-linecap="round" stroke-linejoin="round"/>
<path d="M32.8516 15.2812H31.0016" stroke="white" stroke-linecap="round" stroke-linejoin="round"/>
<path d="M36.7182 21.76C35.829 21.76 35.1082 21.032 35.1082 20.1339C35.1082 19.2358 35.829 18.5078 36.7182 18.5078C37.6073 18.5078 38.3281 19.2358 38.3281 20.1339C38.3281 21.032 37.6073 21.76 36.7182 21.76Z" stroke="white" stroke-linecap="round" stroke-linejoin="round"/>
<path d="M34.8281 20L30.5015 20" stroke="white" stroke-linecap="round" stroke-linejoin="round"/>
<path d="M24.6562 33.4688L24.6562 31.6187" stroke="white" stroke-linecap="round" stroke-linejoin="round"/>
<path d="M15.9399 34.7381C15.9399 34.0368 15.3658 33.4683 14.6575 33.4683C13.9492 33.4683 13.375 34.0368 13.375 34.7381C13.375 35.4393 13.9492 36.0078 14.6575 36.0078C15.3658 36.0078 15.9399 35.4393 15.9399 34.7381Z" stroke="white" stroke-linecap="round" stroke-linejoin="round"/>
<path d="M25.9399 34.7381C25.9399 34.0368 25.3658 33.4683 24.6575 33.4683C23.9492 33.4683 23.375 34.0368 23.375 34.7381C23.375 35.4393 23.9492 36.0078 24.6575 36.0078C25.3658 36.0078 25.9399 35.4393 25.9399 34.7381Z" stroke="white" stroke-linecap="round" stroke-linejoin="round"/>
<path d="M14.6562 33.4688L14.6562 31.6187" stroke="white" stroke-linecap="round" stroke-linejoin="round"/>
<path d="M21.135 37.3353C21.135 36.4462 20.407 35.7254 19.5089 35.7254C18.6108 35.7254 17.8828 36.4462 17.8828 37.3353C17.8828 38.2245 18.6108 38.9453 19.5089 38.9453C20.407 38.9453 21.135 38.2245 21.135 37.3353Z" stroke="white" stroke-linecap="round" stroke-linejoin="round"/>
<path d="M19.375 35.4453L19.375 31.9453" stroke="white" stroke-linecap="round" stroke-linejoin="round"/>
<path d="M24.6562 7.09375L24.6563 8.94375" stroke="white" stroke-linecap="round" stroke-linejoin="round"/>
<path d="M15.9399 5.82443C15.9399 6.52569 15.3658 7.09418 14.6575 7.09418C13.9492 7.09418 13.375 6.52569 13.375 5.82443C13.375 5.12317 13.9492 4.55469 14.6575 4.55469C15.3658 4.55469 15.9399 5.12317 15.9399 5.82443Z" stroke="white" stroke-linecap="round" stroke-linejoin="round"/>
<path d="M25.9399 5.82443C25.9399 6.52569 25.3658 7.09418 24.6575 7.09418C23.9492 7.09418 23.375 6.52569 23.375 5.82443C23.375 5.12317 23.9492 4.55469 24.6575 4.55469C25.3658 4.55469 25.9399 5.12317 25.9399 5.82443Z" stroke="white" stroke-linecap="round" stroke-linejoin="round"/>
<path d="M14.6562 7.09375L14.6563 8.94375" stroke="white" stroke-linecap="round" stroke-linejoin="round"/>
<path d="M21.135 3.22715C21.135 4.11631 20.407 4.83711 19.5089 4.83711C18.6108 4.83711 17.8828 4.11631 17.8828 3.22715C17.8828 2.33799 18.6108 1.61719 19.5089 1.61719C20.407 1.61719 21.135 2.33799 21.135 3.22715Z" stroke="white" stroke-linecap="round" stroke-linejoin="round"/>
<path d="M19.375 5.11719L19.375 9.44385" stroke="white" stroke-linecap="round" stroke-linejoin="round"/>
</g>
</svg>
