<svg width="1805" height="251" viewBox="0 0 1805 251" fill="none" xmlns="http://www.w3.org/2000/svg">
<mask id="mask0_7_248" style="mask-type:alpha" maskUnits="userSpaceOnUse" x="0" y="0" width="1806" height="251">
<rect x="0.000183105" y="0.314941" width="1805" height="250" fill="#D9D9D9"/>
</mask>
<g mask="url(#mask0_7_248)">
<g clip-path="url(#clip0_7_248)">
<path d="M0.000183105 0.314941L125 125.315L0.000183105 250.315" stroke="#3A3838"/>
<path d="M95.0002 0.314941L220 125.315L95.0002 250.315" stroke="#3A3838"/>
<path d="M190 0.314941L315 125.315L190 250.315" stroke="#3A3838"/>
<path d="M285 0.314941L410 125.315L285 250.315" stroke="#3A3838"/>
<path d="M380 0.314941L505 125.315L380 250.315" stroke="#3A3838"/>
<path d="M475 0.314941L600 125.315L475 250.315" stroke="#3A3838"/>
<path d="M570 0.314941L695 125.315L570 250.315" stroke="#3A3838"/>
<path d="M665 0.314941L790 125.315L665 250.315" stroke="#3A3838"/>
<path d="M760 0.314941L885 125.315L760 250.315" stroke="#3A3838"/>
<path d="M855 0.314941L980 125.315L855 250.315" stroke="#3A3838"/>
<path d="M950 0.314941L1075 125.315L950 250.315" stroke="#3A3838"/>
<path d="M1045 0.314941L1170 125.315L1045 250.315" stroke="#3A3838"/>
<path d="M1140 0.314941L1265 125.315L1140 250.315" stroke="#3A3838"/>
<path d="M1235 0.314941L1360 125.315L1235 250.315" stroke="#3A3838"/>
<path d="M1330 0.314941L1455 125.315L1330 250.315" stroke="#3A3838"/>
<path d="M1425 0.314941L1550 125.315L1425 250.315" stroke="#3A3838"/>
<path d="M1520 0.314941L1645 125.315L1520 250.315" stroke="#3A3838"/>
<path d="M1615 0.314941L1740 125.315L1615 250.315" stroke="#3A3838"/>
<path d="M1710 0.314941L1835 125.315L1710 250.315" stroke="#3A3838"/>
<path d="M1805 0.314941L1930 125.315L1805 250.315" stroke="#3A3838"/>
</g>
<path d="M-95.3097 0.314941L29.6903 125.315L-95.3097 250.315" stroke="#3A3838"/>
</g>
<defs>
<clipPath id="clip0_7_248">
<rect width="1805" height="250" fill="white" transform="translate(0.000183105 0.314941)"/>
</clipPath>
</defs>
</svg>
