<svg width="296" height="640" viewBox="0 0 296 640" fill="none" xmlns="http://www.w3.org/2000/svg">
<mask id="mask0_7_268" style="mask-type:alpha" maskUnits="userSpaceOnUse" x="0" y="0" width="296" height="640">
<rect y="0.950027" width="295.5" height="638.28" fill="#D9D9D9"/>
</mask>
<g mask="url(#mask0_7_268)">
<path d="M295.5 -105.43L147.75 42.32L-1.0252e-05 -105.43" stroke="#3A3838"/>
<path d="M295.5 -52.24L147.75 95.51L-1.0252e-05 -52.24" stroke="#3A3838"/>
<path d="M295.5 0.950027L147.75 148.7L-1.0252e-05 0.950015" stroke="#3A3838"/>
<path d="M295.5 54.14L147.75 201.89L-1.0252e-05 54.14" stroke="#3A3838"/>
<path d="M295.5 107.33L147.75 255.08L-1.0252e-05 107.33" stroke="#3A3838"/>
<path d="M295.5 160.52L147.75 308.27L-1.0252e-05 160.52" stroke="#3A3838"/>
<path d="M295.5 213.71L147.75 361.46L-1.0252e-05 213.71" stroke="#3A3838"/>
<path d="M295.5 266.9L147.75 414.65L-1.0252e-05 266.9" stroke="#3A3838"/>
<path d="M295.5 320.09L147.75 467.84L-1.0252e-05 320.09" stroke="#3A3838"/>
<path d="M295.5 373.28L147.75 521.03L-1.0252e-05 373.28" stroke="#3A3838"/>
<path d="M295.5 426.47L147.75 574.22L-1.0252e-05 426.47" stroke="#3A3838"/>
<path d="M295.5 479.66L147.75 627.41L-1.0252e-05 479.66" stroke="#3A3838"/>
<path d="M295.5 532.85L147.75 680.6L-1.0252e-05 532.85" stroke="#3A3838"/>
<path d="M295.5 586.04L147.75 733.79L-1.0252e-05 586.04" stroke="#3A3838"/>
<path d="M295.5 639.23L147.75 786.98L-1.0252e-05 639.23" stroke="#3A3838"/>
</g>
</svg>
