<svg width="1772" height="250" viewBox="0 0 1772 250" fill="none" xmlns="http://www.w3.org/2000/svg">
<g clip-path="url(#clip0_2027_9518)">
<path d="M0 0L125 125L0 250" stroke="#3A3838"/>
<path d="M95 0L220 125L95 250" stroke="#3A3838"/>
<path d="M190 0L315 125L190 250" stroke="#3A3838"/>
<path d="M285 0L410 125L285 250" stroke="#3A3838"/>
<path d="M380 0L505 125L380 250" stroke="#3A3838"/>
<path d="M475 0L600 125L475 250" stroke="#3A3838"/>
<path d="M570 0L695 125L570 250" stroke="#3A3838"/>
<path d="M665 0L790 125L665 250" stroke="#3A3838"/>
<path d="M760 0L885 125L760 250" stroke="#3A3838"/>
<path d="M855 0L980 125L855 250" stroke="#3A3838"/>
<path d="M950 0L1075 125L950 250" stroke="#3A3838"/>
<path d="M1045 0L1170 125L1045 250" stroke="#3A3838"/>
<path d="M1140 0L1265 125L1140 250" stroke="#3A3838"/>
<path d="M1235 0L1360 125L1235 250" stroke="#3A3838"/>
<path d="M1330 0L1455 125L1330 250" stroke="#3A3838"/>
<path d="M1425 0L1550 125L1425 250" stroke="#3A3838"/>
<path d="M1520 0L1645 125L1520 250" stroke="#3A3838"/>
<path d="M1615 0L1740 125L1615 250" stroke="#3A3838"/>
<path d="M1710 0L1835 125L1710 250" stroke="#3A3838"/>
</g>
<defs>
<clipPath id="clip0_2027_9518">
<rect width="1772" height="250" fill="white"/>
</clipPath>
</defs>
</svg>
