<svg width="40" height="40" viewBox="0 0 40 40" fill="none" xmlns="http://www.w3.org/2000/svg">
<mask id="mask0_2220_3982" style="mask-type:alpha" maskUnits="userSpaceOnUse" x="0" y="0" width="40" height="40">
<rect width="40" height="40" fill="#464443"/>
</mask>
<g mask="url(#mask0_2220_3982)">
<path fill-rule="evenodd" clip-rule="evenodd" d="M4.87344 28.8421C5.34677 29.3154 5.91135 29.5521 6.56719 29.5521H33.4264C34.0822 29.5521 34.6468 29.3154 35.1201 28.8421C35.5934 28.3687 35.8301 27.8042 35.8301 27.1483V8.62292C35.8301 7.96681 35.5934 7.40208 35.1201 6.92875C34.6468 6.45542 34.0822 6.21875 33.4264 6.21875H6.56719C5.91135 6.21875 5.34677 6.45542 4.87344 6.92875C4.4001 7.40208 4.16344 7.96681 4.16344 8.62292V27.1483C4.16344 27.8042 4.4001 28.3687 4.87344 28.8421ZM2.30469 31.8275V33.7188H37.6889V31.8275H2.30469ZM18.7328 24.1218L18.882 26H21.0879L21.2672 24.1218C21.9848 23.9403 22.6639 23.6719 23.3044 23.3167C23.945 22.9614 24.5183 22.5167 25.0243 21.9825L26.6728 22.8211L28 20.8761L26.4896 19.7023C26.7215 18.994 26.8375 18.2648 26.8375 17.5145C26.8375 16.7643 26.7215 16.0352 26.4896 15.3273L28 14.1535L26.6728 12.1784L25.0243 13.017C24.5108 12.5028 23.9357 12.0681 23.2991 11.7129C22.6621 11.3576 21.9848 11.0955 21.2672 10.9266L21.0879 9H18.882L18.7328 10.9266C18.0148 11.0955 17.3375 11.3576 16.7009 11.7129C16.0643 12.0681 15.4892 12.5028 14.9757 13.017L13.3083 12.1784L12 14.1535L13.4915 15.3273C13.2598 16.0352 13.144 16.7643 13.144 17.5145C13.144 18.2648 13.2598 18.994 13.4915 19.7023L12 20.8761L13.3083 22.8211L14.9757 21.9825C15.4817 22.5167 16.0549 22.9614 16.6951 23.3167C17.3356 23.6719 18.0148 23.9403 18.7328 24.1218ZM23.3812 20.9042C22.4404 21.8417 21.3083 22.3105 19.9852 22.3105C18.6494 22.3105 17.511 21.8417 16.5702 20.9042C15.6293 19.9663 15.1589 18.8316 15.1589 17.5C15.1589 16.1684 15.6293 15.0337 16.5702 14.0958C17.511 13.158 18.6494 12.689 19.9852 12.689C21.3083 12.689 22.4404 13.158 23.3812 14.0958C24.3221 15.0337 24.7925 16.1684 24.7925 17.5C24.7925 18.8316 24.3221 19.9663 23.3812 20.9042Z" fill="#464443"/>
</g>
</svg>
