<svg width="40" height="40" viewBox="0 0 40 40" fill="none" xmlns="http://www.w3.org/2000/svg">
<mask id="mask0_2031_3038" style="mask-type:alpha" maskUnits="userSpaceOnUse" x="0" y="0" width="40" height="40">
<rect width="40" height="40" fill="#E3E3E3"/>
</mask>
<g mask="url(#mask0_2031_3038)">
<path d="M11.8054 13.8909C11.146 13.8909 10.5794 13.6536 10.1058 13.1789C9.6325 12.7039 9.39583 12.14 9.39583 11.4872V7.20844C9.39583 6.55566 9.63319 5.99177 10.1079 5.51677C10.5829 5.04205 11.1468 4.80469 11.7996 4.80469H28.2038C28.8632 4.80469 29.4297 5.04205 29.9033 5.51677C30.3767 5.99177 30.6133 6.55566 30.6133 7.20844V11.4872C30.6133 12.14 30.376 12.7039 29.9013 13.1789C29.4263 13.6536 28.8624 13.8909 28.2096 13.8909H11.8054ZM11.7996 12.0001H28.2096C28.3699 12.0001 28.4954 11.9547 28.5863 11.8639C28.6771 11.773 28.7225 11.6475 28.7225 11.4872V7.20844C28.7225 7.04816 28.6771 6.9226 28.5863 6.83177C28.4954 6.74094 28.3699 6.69552 28.2096 6.69552H11.7996C11.6393 6.69552 11.5138 6.74094 11.4229 6.83177C11.3321 6.9226 11.2867 7.04816 11.2867 7.20844V11.4872C11.2867 11.6475 11.3321 11.773 11.4229 11.8639C11.5138 11.9547 11.6393 12.0001 11.7996 12.0001ZM7.21625 35.1889C6.56347 35.1889 5.99958 34.9515 5.52458 34.4768C5.04986 34.0018 4.8125 33.4379 4.8125 32.7851V30.2051H35.1967V32.7851C35.1967 33.4407 34.9593 34.0051 34.4846 34.4784C34.0096 34.952 33.4457 35.1889 32.7929 35.1889H7.21625ZM4.8125 29.0351L10.1621 16.7118C10.3649 16.2737 10.665 15.9211 11.0625 15.6539C11.46 15.3866 11.884 15.253 12.3346 15.253H27.6746C28.1251 15.253 28.5492 15.3866 28.9467 15.6539C29.3442 15.9211 29.6443 16.2737 29.8471 16.7118L35.1967 29.0351H4.8125ZM14.3637 26.0222H16.0304C16.2268 26.0222 16.3987 25.9486 16.5462 25.8014C16.6937 25.6539 16.7675 25.4818 16.7675 25.2851C16.7675 25.0887 16.6937 24.9168 16.5462 24.7693C16.3987 24.6218 16.2268 24.548 16.0304 24.548H14.3637C14.1671 24.548 13.995 24.6218 13.8475 24.7693C13.7 24.9168 13.6263 25.0887 13.6263 25.2851C13.6263 25.4818 13.7 25.6539 13.8475 25.8014C13.995 25.9486 14.1671 26.0222 14.3637 26.0222ZM14.3637 22.8814H16.0304C16.2268 22.8814 16.3987 22.8076 16.5462 22.6601C16.6937 22.5126 16.7675 22.3407 16.7675 22.1443C16.7675 21.9476 16.6937 21.7755 16.5462 21.628C16.3987 21.4808 16.2268 21.4072 16.0304 21.4072H14.3637C14.1671 21.4072 13.995 21.4808 13.8475 21.628C13.7 21.7755 13.6263 21.9476 13.6263 22.1443C13.6263 22.3407 13.7 22.5126 13.8475 22.6601C13.995 22.8076 14.1671 22.8814 14.3637 22.8814ZM14.3637 19.7405H16.0304C16.2268 19.7405 16.3987 19.6668 16.5462 19.5193C16.6937 19.3718 16.7675 19.1997 16.7675 19.003C16.7675 18.8066 16.6937 18.6347 16.5462 18.4872C16.3987 18.3397 16.2268 18.2659 16.0304 18.2659H14.3637C14.1671 18.2659 13.995 18.3397 13.8475 18.4872C13.7 18.6347 13.6263 18.8066 13.6263 19.003C13.6263 19.1997 13.7 19.3718 13.8475 19.5193C13.995 19.6668 14.1671 19.7405 14.3637 19.7405ZM19.1712 26.0222H20.8379C21.0346 26.0222 21.2065 25.9486 21.3538 25.8014C21.5012 25.6539 21.575 25.4818 21.575 25.2851C21.575 25.0887 21.5012 24.9168 21.3538 24.7693C21.2065 24.6218 21.0346 24.548 20.8379 24.548H19.1712C18.9746 24.548 18.8026 24.6218 18.6554 24.7693C18.5079 24.9168 18.4342 25.0887 18.4342 25.2851C18.4342 25.4818 18.5079 25.6539 18.6554 25.8014C18.8026 25.9486 18.9746 26.0222 19.1712 26.0222ZM19.1712 22.8814H20.8379C21.0346 22.8814 21.2065 22.8076 21.3538 22.6601C21.5012 22.5126 21.575 22.3407 21.575 22.1443C21.575 21.9476 21.5012 21.7755 21.3538 21.628C21.2065 21.4808 21.0346 21.4072 20.8379 21.4072H19.1712C18.9746 21.4072 18.8026 21.4808 18.6554 21.628C18.5079 21.7755 18.4342 21.9476 18.4342 22.1443C18.4342 22.3407 18.5079 22.5126 18.6554 22.6601C18.8026 22.8076 18.9746 22.8814 19.1712 22.8814ZM19.1712 19.7405H20.8379C21.0346 19.7405 21.2065 19.6668 21.3538 19.5193C21.5012 19.3718 21.575 19.1997 21.575 19.003C21.575 18.8066 21.5012 18.6347 21.3538 18.4872C21.2065 18.3397 21.0346 18.2659 20.8379 18.2659H19.1712C18.9746 18.2659 18.8026 18.3397 18.6554 18.4872C18.5079 18.6347 18.4342 18.8066 18.4342 19.003C18.4342 19.1997 18.5079 19.3718 18.6554 19.5193C18.8026 19.6668 18.9746 19.7405 19.1712 19.7405ZM23.9788 26.0222H25.6454C25.8421 26.0222 26.0142 25.9486 26.1617 25.8014C26.3092 25.6539 26.3829 25.4818 26.3829 25.2851C26.3829 25.0887 26.3092 24.9168 26.1617 24.7693C26.0142 24.6218 25.8421 24.548 25.6454 24.548H23.9788C23.7824 24.548 23.6104 24.6218 23.4629 24.7693C23.3154 24.9168 23.2417 25.0887 23.2417 25.2851C23.2417 25.4818 23.3154 25.6539 23.4629 25.8014C23.6104 25.9486 23.7824 26.0222 23.9788 26.0222ZM23.9788 22.8814H25.6454C25.8421 22.8814 26.0142 22.8076 26.1617 22.6601C26.3092 22.5126 26.3829 22.3407 26.3829 22.1443C26.3829 21.9476 26.3092 21.7755 26.1617 21.628C26.0142 21.4808 25.8421 21.4072 25.6454 21.4072H23.9788C23.7824 21.4072 23.6104 21.4808 23.4629 21.628C23.3154 21.7755 23.2417 21.9476 23.2417 22.1443C23.2417 22.3407 23.3154 22.5126 23.4629 22.6601C23.6104 22.8076 23.7824 22.8814 23.9788 22.8814ZM23.9788 19.7405H25.6454C25.8421 19.7405 26.0142 19.6668 26.1617 19.5193C26.3092 19.3718 26.3829 19.1997 26.3829 19.003C26.3829 18.8066 26.3092 18.6347 26.1617 18.4872C26.0142 18.3397 25.8421 18.2659 25.6454 18.2659H23.9788C23.7824 18.2659 23.6104 18.3397 23.4629 18.4872C23.3154 18.6347 23.2417 18.8066 23.2417 19.003C23.2417 19.1997 23.3154 19.3718 23.4629 19.5193C23.6104 19.6668 23.7824 19.7405 23.9788 19.7405Z" fill="#464443"/>
</g>
</svg>
