<svg width="40" height="40" viewBox="0 0 40 40" fill="none" xmlns="http://www.w3.org/2000/svg">
<path fill-rule="evenodd" clip-rule="evenodd" d="M10.5546 29.9742C8.31319 29.9742 6.41042 29.1894 4.84625 27.62C3.28208 26.0506 2.5 24.1451 2.5 21.9038C2.5 19.8651 3.18375 18.0718 4.55125 16.5238C5.91875 14.9757 7.62389 14.1044 9.66667 13.91C10.0942 11.3225 11.2849 9.19056 13.2388 7.51417C15.1929 5.83806 17.4692 5 20.0675 5C22.9756 5 25.4349 6.0518 27.4454 8.15542C29.4562 10.259 30.4617 12.7872 30.4617 15.74V17.3171H30.9742C32.7928 17.251 34.335 17.8247 35.6008 19.0383C36.8669 20.2519 37.5 21.785 37.5 23.6375C37.5 25.3725 36.8776 26.8624 35.6329 28.1071C34.3882 29.3518 32.8983 29.9742 31.1633 29.9742H28.5062L25.705 27.173C26.214 26.1407 26.5 24.9788 26.5 23.75C26.5 19.4698 23.0302 16 18.75 16C14.4698 16 11 19.4698 11 23.75C11 26.2997 12.2312 28.5618 14.1316 29.9742H10.5546Z" fill="#464443"/>
<path d="M23.2677 27.0952L28 31.8411L26.8407 33L22.0733 28.2324C21.5831 28.6442 21.0463 28.9389 20.463 29.1166C19.88 29.2943 19.2896 29.3832 18.6918 29.3832C17.1227 29.3832 15.7817 28.8291 14.6689 27.721C13.5563 26.6129 13 25.2698 13 23.6916C13 22.1132 13.5563 20.7699 14.6689 19.6618C15.7817 18.5539 17.1227 18 18.6918 18C20.2699 18 21.6153 18.5539 22.7279 19.6618C23.8405 20.7699 24.3968 22.1132 24.3968 23.6916C24.3968 24.3313 24.2938 24.9454 24.0879 25.5339C23.8821 26.1227 23.6087 26.6431 23.2677 27.0952ZM18.6918 27.7704C19.838 27.7704 20.8066 27.3772 21.5974 26.5909C22.3885 25.8043 22.784 24.8378 22.784 23.6916C22.784 22.5543 22.3885 21.5902 21.5974 20.7991C20.8066 20.0082 19.838 19.6128 18.6918 19.6128C17.5546 19.6128 16.5904 20.0082 15.7994 20.7991C15.0085 21.5902 14.6131 22.5543 14.6131 23.6916C14.6131 24.8378 15.0085 25.8043 15.7994 26.5909C16.5904 27.3772 17.5546 27.7704 18.6918 27.7704Z" fill="#464443"/>
</svg>
